name analog
datacolumns 19
datarows 47
range 0.5265 0.5495
endheader
time	ground_force_vx	ground_force_vy	ground_force_vz	ground_force_px	ground_force_py	ground_force_pz	l_ground_force_vx	l_ground_force_vy	l_ground_force_vz	l_ground_force_px	l_ground_force_py	l_ground_force_pz	ground_torque_x	ground_torque_y	ground_torque_z	l_ground_torque_x	l_ground_torque_y	l_ground_torque_z
0.5265	-0.0	-0.0	-0.0	-0.0	-0.0	-0.0	-14.231386184692385	-11.002715110778809	-761.9970703125	-0.0	-0.0	-0.0	-0.0	-0.0	-0.0	203280.84375	-14582.9873046875	-7816.3779296875
0.527	-0.0	-0.0	-0.0	-0.0	-0.0	-0.0	-14.03517246246338	-11.532569885253906	-764.6199340820312	-0.0	-0.0	-0.0	-0.0	-0.0	-0.0	204132.28125	-14742.46875	-7820.86279296875
0.5275	-0.0	-0.0	-0.0	-0.0	-0.0	-0.0	-13.699252128601074	-12.137696266174316	-768.534423828125	-0.0	-0.0	-0.0	-0.0	-0.0	-0.0	204998.640625	-15138.75	-7772.1669921875
0.528	-0.0	-0.0	-0.0	-0.0	-0.0	-0.0	-13.065373420715332	-12.825494766235352	-773.421875	-0.0	-0.0	-0.0	-0.0	-0.0	-0.0	206322.625	-15368.439453125	-7576.87939453125
0.5285	-0.0	-0.0	-0.0	-0.0	-0.0	-0.0	-12.723583221435549	-13.261024475097656	-776.93701171875	-0.0	-0.0	-0.0	-0.0	-0.0	-0.0	207495.171875	-15722.4619140625	-7468.724609375
0.529	-0.0	-0.0	-0.0	-0.0	-0.0	-0.0	-11.697105407714844	-13.147269248962402	-782.99755859375	-0.0	-0.0	-0.0	-0.0	-0.0	-0.0	209091.71875	-16196.0166015625	-7173.3974609375
0.5295	-0.0	-0.0	-0.0	-0.0	-0.0	-0.0	-10.8733549118042	-12.89496612548828	-787.7609252929688	-0.0	-0.0	-0.0	-0.0	-0.0	-0.0	210406.0	-16722.591796875	-6848.630859375
0.53	-0.0	-0.0	-0.0	-0.0	-0.0	-0.0	-9.441489219665527	-11.703067779541016	-791.650634765625	-0.0	-0.0	-0.0	-0.0	-0.0	-0.0	211738.828125	-16854.416015625	-6538.00146484375
0.5305	-0.0	-0.0	-0.0	-0.0	-0.0	-0.0	-8.66225528717041	-10.712717056274414	-796.7372436523438	-0.0	-0.0	-0.0	-0.0	-0.0	-0.0	213144.171875	-17341.669921875	-6316.82177734375
0.531	-0.0	-0.0	-0.0	-0.0	-0.0	-0.0	-8.091819763183594	-9.691177368164062	-799.632568359375	-0.0	-0.0	-0.0	-0.0	-0.0	-0.0	214306.3125	-17600.18359375	-6197.53564453125
0.5315	-0.0	-0.0	-0.0	-0.0	-0.0	-0.0	-7.768197536468506	-8.770075798034668	-803.294189453125	-0.0	-0.0	-0.0	-0.0	-0.0	-0.0	215107.0625	-17813.974609375	-6029.55224609375
0.532	-0.0	-0.0	-0.0	-0.0	-0.0	-0.0	-6.730162143707275	-8.309561729431152	-804.4453125	-0.0	-0.0	-0.0	-0.0	-0.0	-0.0	215673.15625	-18059.66796875	-5761.720703125
0.5325	-0.0	-0.0	-0.0	-0.0	-0.0	-0.0	-6.128521919250488	-7.622262954711914	-806.1153564453125	-0.0	-0.0	-0.0	-0.0	-0.0	-0.0	216239.34375	-18213.078125	-5424.44873046875
0.533	-0.0	-0.0	-0.0	-0.0	-0.0	-0.0	-5.615719795227051	-7.311509132385254	-806.540283203125	-0.0	-0.0	-0.0	-0.0	-0.0	-0.0	216868.34375	-18209.8671875	-5345.3779296875
0.5335	-0.0	-0.0	-0.0	-0.0	-0.0	-0.0	-5.056514739990234	-7.096372604370117	-809.2574462890625	-0.0	-0.0	-0.0	-0.0	-0.0	-0.0	217380.703125	-18274.4453125	-5181.06396484375
0.534	-0.0	-0.0	-0.0	-0.0	-0.0	-0.0	-4.690321922302246	-6.397672176361084	-812.0505981445312	-0.0	-0.0	-0.0	-0.0	-0.0	-0.0	218259.75	-18468.326171875	-4965.32275390625
0.5345	-0.0	-0.0	-0.0	-0.0	-0.0	-0.0	-4.50487232208252	-6.389604568481445	-811.7333984375	-0.0	-0.0	-0.0	-0.0	-0.0	-0.0	218721.203125	-18672.72265625	-4747.32763671875
0.535	-0.0	-0.0	-0.0	-0.0	-0.0	-0.0	-4.277533054351807	-6.320501327514648	-814.537841796875	-0.0	-0.0	-0.0	-0.0	-0.0	-0.0	219115.484375	-18710.16796875	-4460.74560546875
0.5355	-0.0	-0.0	-0.0	-0.0	-0.0	-0.0	-3.764738321304321	-6.447483062744141	-814.8767700195312	-0.0	-0.0	-0.0	-0.0	-0.0	-0.0	219430.203125	-18585.234375	-4440.91845703125
0.536	-0.0	-0.0	-0.0	-0.0	-0.0	-0.0	-3.795083522796631	-5.986479759216309	-816.0440063476562	-0.0	-0.0	-0.0	-0.0	-0.0	-0.0	219817.796875	-18365.15234375	-4157.18505859375
0.5365	-0.0	-0.0	-0.0	-0.0	-0.0	-0.0	-3.479238271713257	-5.967010498046875	-815.8136596679688	-0.0	-0.0	-0.0	-0.0	-0.0	-0.0	219881.140625	-18082.556640625	-3952.865478515625
0.537	-0.0	-0.0	-0.0	-0.0	-0.0	-0.0	-3.5785067081451416	-5.672047138214111	-817.3284912109375	-0.0	-0.0	-0.0	-0.0	-0.0	-0.0	220239.6875	-17700.265625	-3771.31884765625
0.5375	-0.0	-0.0	-0.0	-0.0	-0.0	-0.0	-4.011568069458008	-5.446113109588623	-816.0853271484375	-0.0	-0.0	-0.0	-0.0	-0.0	-0.0	220189.65625	-17680.01953125	-3784.665771484375
0.538	-0.0	-0.0	-0.0	-0.0	-0.0	-0.0	-4.495239734649658	-5.574451446533203	-816.5111694335938	-0.0	-0.0	-0.0	-0.0	-0.0	-0.0	220381.359375	-17499.0	-3758.824462890625
0.5385	-0.0	-0.0	-0.0	-0.0	-0.0	-0.0	-4.050934791564941	-5.161785125732422	-815.4237060546875	-0.0	-0.0	-0.0	-0.0	-0.0	-0.0	220218.21875	-17158.173828125	-3553.9248046875
0.539	-0.0	-0.0	-0.0	-0.0	-0.0	-0.0	-3.844219207763672	-5.122657775878906	-814.1441040039062	-0.0	-0.0	-0.0	-0.0	-0.0	-0.0	220068.53125	-16875.720703125	-3319.8251953125
0.5395	-0.0	-0.0	-0.0	-0.0	-0.0	-0.0	-3.8638293743133545	-5.142293930053711	-812.126708984375	-0.0	-0.0	-0.0	-0.0	-0.0	-0.0	219606.171875	-16664.00390625	-3230.839599609375
0.54	-0.0	-0.0	-0.0	-0.0	-0.0	-0.0	-3.991985321044922	-5.505246162414551	-810.0714721679688	-0.0	-0.0	-0.0	-0.0	-0.0	-0.0	219155.15625	-16309.82421875	-2983.856689453125
0.5405	-0.0	-0.0	-0.0	-0.0	-0.0	-0.0	-4.03156042098999	-5.102956771850586	-807.431884765625	-0.0	-0.0	-0.0	-0.0	-0.0	-0.0	218529.6875	-15821.4404296875	-2825.6669921875
0.541	-0.0	-0.0	-0.0	-0.0	-0.0	-0.0	-3.63814640045166	-5.2889323234558105	-804.13720703125	-0.0	-0.0	-0.0	-0.0	-0.0	-0.0	217958.265625	-15819.7685546875	-2634.254150390625
0.5415	-0.0	-0.0	-0.0	-0.0	-0.0	-0.0	-3.086356401443481	-4.6520538330078125	-801.0736694335938	-0.0	-0.0	-0.0	-0.0	-0.0	-0.0	217113.921875	-15712.765625	-2461.94677734375
0.542	-0.0	-0.0	-0.0	-0.0	-0.0	-0.0	-2.75003433227539	-4.210516929626465	-798.509765625	-0.0	-0.0	-0.0	-0.0	-0.0	-0.0	216610.78125	-15520.349609375	-2175.150146484375
0.5425	-0.0	-0.0	-0.0	-0.0	-0.0	-0.0	-2.208754539489746	-3.817669153213501	-796.1441040039062	-0.0	-0.0	-0.0	-0.0	-0.0	-0.0	216052.53125	-15316.5771484375	-1779.368408203125
0.543	-0.0	-0.0	-0.0	-0.0	-0.0	-0.0	-2.3464033603668213	-3.738210916519165	-793.5867309570312	-0.0	-0.0	-0.0	-0.0	-0.0	-0.0	215833.53125	-15537.234375	-1667.514892578125
0.5435	-0.0	-0.0	-0.0	-0.0	-0.0	-0.0	-1.6567606925964355	-3.091259002685547	-791.0989379882812	-0.0	-0.0	-0.0	-0.0	-0.0	-0.0	215553.375	-15784.7978515625	-1508.1455078125
0.544	-0.0	-0.0	-0.0	-0.0	-0.0	-0.0	-0.907134175300598	-2.2592899799346924	-788.69970703125	-0.0	-0.0	-0.0	-0.0	-0.0	-0.0	215118.078125	-16111.7900390625	-1260.501953125
0.5445	-0.0	-0.0	-0.0	-0.0	-0.0	-0.0	-0.5322647094726562	-1.983028769493103	-787.4490966796875	-0.0	-0.0	-0.0	-0.0	-0.0	-0.0	214963.703125	-16040.76953125	-1036.2962646484375
0.545	-0.0	-0.0	-0.0	-0.0	-0.0	-0.0	-0.2577872574329376	-1.5214719772338867	-784.5899658203125	-0.0	-0.0	-0.0	-0.0	-0.0	-0.0	215080.796875	-16349.056640625	-874.2637329101562
0.5455	-0.0	-0.0	-0.0	-0.0	-0.0	-0.0	-0.2139407694339752	-0.831254243850708	-784.0830078125	-0.0	-0.0	-0.0	-0.0	-0.0	-0.0	215321.328125	-16753.9921875	-632.7794189453125
0.546	-0.0	-0.0	-0.0	-0.0	-0.0	-0.0	0.9233646392822266	-0.1003897190093994	-782.7345581054688	-0.0	-0.0	-0.0	-0.0	-0.0	-0.0	215352.03125	-17291.69140625	-432.2054748535156
0.5465	-0.0	-0.0	-0.0	-0.0	-0.0	-0.0	1.5362056493759155	1.019645094871521	-782.5282592773438	-0.0	-0.0	-0.0	-0.0	-0.0	-0.0	215782.078125	-17387.40625	-203.6463165283203
0.547	-0.0	-0.0	-0.0	-0.0	-0.0	-0.0	2.4029765129089355	1.4735748767852783	-782.6876220703125	-0.0	-0.0	-0.0	-0.0	-0.0	-0.0	215798.796875	-18301.806640625	-24.97743797302246
0.5475	-0.0	-0.0	-0.0	-0.0	-0.0	-0.0	3.5281624794006348	1.7588318586349487	-782.8777465820312	-0.0	-0.0	-0.0	-0.0	-0.0	-0.0	216173.40625	-18355.8125	473.3560791015625
0.548	-0.0	-0.0	-0.0	-0.0	-0.0	-0.0	4.217504978179932	1.5897903442382812	-781.9397583007812	-0.0	-0.0	-0.0	-0.0	-0.0	-0.0	216278.265625	-19095.822265625	694.969482421875
0.5485	-0.0	-0.0	-0.0	-0.0	-0.0	-0.0	4.947473526000977	1.624744534492493	-780.7539672851562	-0.0	-0.0	-0.0	-0.0	-0.0	-0.0	216254.875	-19176.99609375	873.4575805664062
0.549	-0.0	-0.0	-0.0	-0.0	-0.0	-0.0	5.104489803314209	1.0670673847198486	-779.5753784179688	-0.0	-0.0	-0.0	-0.0	-0.0	-0.0	216356.375	-19490.908203125	930.2974243164062
0.5495	-0.0	-0.0	-0.0	-0.0	-0.0	-0.0	4.714988231658936	0.6041361093521118	-778.1785888671875	-0.0	-0.0	-0.0	-0.0	-0.0	-0.0	216167.703125	-19803.58984375	1041.7481689453125
